<svg width="662" height="897" viewBox="0 0 662 897" fill="none" xmlns="http://www.w3.org/2000/svg"><path d="M65.9831 855.345C65.0463 855.452 64.3938 856.049 64.0022 857.114C63.2844 859.07 63.2191 862.282 63.7289 866.683C64.1115 869.974 64.2289 872.849 64.3281 875.201C64.4129 877.25 64.4779 878.813 64.5894 879.773C65.911 875.801 66.4703 871.771 66.6001 867.738C66.7323 863.604 66.4057 859.442 65.9837 855.342L65.9831 855.345ZM66.3797 879.238C66.5905 878.887 66.8182 878.487 67.0537 878.05C68.3395 875.655 69.542 872.227 70.3176 868.591C70.4118 868.149 70.4852 867.776 70.5339 867.473C71.0644 864.32 70.9569 861.34 70.2421 859.071C69.6952 857.335 68.793 856.064 67.5612 855.568C67.9691 859.586 68.2735 863.674 68.1415 867.792C68.021 871.618 67.5201 875.449 66.3797 879.238ZM108.547 720.527C108.627 720.196 108.959 719.992 109.29 720.069C109.621 720.149 109.826 720.48 109.749 720.811C105.038 740.506 98.469 750.219 91.6253 758.341C98.0531 754.466 103.957 750.643 109.667 746.029C116.759 740.299 123.569 733.342 130.749 723.536C130.875 723.364 131.117 723.327 131.289 723.452C131.462 723.577 131.499 723.819 131.373 723.992C124.147 733.861 117.293 740.862 110.152 746.632C103.873 751.703 97.3825 755.816 90.2296 760.081C92.641 759.422 94.9224 759.061 97.1665 758.815C97.9044 758.558 98.6423 758.301 99.3826 758.048C112.957 753.347 126.415 748.688 139.368 735.498C139.517 735.347 139.762 735.342 139.913 735.491C140.065 735.641 140.07 735.885 139.92 736.037C127.073 749.119 113.777 753.876 100.363 758.523C100.794 758.488 101.228 758.457 101.662 758.424C111.703 757.669 122.209 756.883 141.497 739.514C141.654 739.37 141.901 739.385 142.041 739.541C142.185 739.698 142.17 739.945 142.014 740.086C122.531 757.629 111.889 758.426 101.717 759.188C100.258 759.297 98.8114 759.406 97.3449 759.565C94.991 760.385 92.6301 761.222 90.2765 762.115C92.1125 761.899 93.8599 761.832 95.5577 761.85C95.9556 761.808 96.3535 761.766 96.7483 761.724C110.11 760.321 121.607 759.114 140.192 748.299C140.413 748.169 140.697 748.246 140.827 748.466C140.957 748.687 140.881 748.971 140.66 749.101C124.1 758.738 113.132 760.817 101.52 762.144L101.613 762.151C111.661 762.849 122.169 763.582 143.754 749.173C143.93 749.056 144.17 749.104 144.287 749.281C144.404 749.457 144.357 749.697 144.18 749.814C122.374 764.369 111.731 763.63 101.553 762.923C99.9757 762.814 98.4114 762.705 96.8183 762.656C94.0683 762.946 91.2442 763.241 88.2709 763.629L88.301 763.651C91.7799 763.621 95.0154 763.695 98.1497 763.769C111.581 764.082 123.14 764.353 142.952 755.998C143.188 755.9 143.459 756.008 143.558 756.244C143.656 756.48 143.548 756.751 143.311 756.849C123.311 765.284 111.665 765.01 98.1257 764.697C95.5512 764.638 92.9082 764.574 90.1316 764.573C93.1581 765.24 96.0348 765.958 98.8304 766.656C111.869 769.909 123.085 772.706 144.248 768.9C144.498 768.855 144.738 769.023 144.785 769.274C144.83 769.523 144.662 769.763 144.411 769.811C123.05 773.654 111.747 770.835 98.6096 767.558C96.6098 767.058 94.5646 766.549 92.4168 766.047C95.3849 767.493 98.2727 769.004 101.154 770.514C113.883 777.176 126.501 783.78 144.985 784.171C145.199 784.176 145.367 784.351 145.363 784.565C145.358 784.779 145.183 784.947 144.969 784.943C126.308 784.548 113.608 777.902 100.8 771.197C98.0145 769.74 95.2238 768.278 92.3686 766.881C94.1338 768.317 95.8696 769.772 97.6 771.223C108.615 780.448 119.533 789.593 137.504 793.917C137.712 793.967 137.838 794.175 137.791 794.38C137.741 794.587 137.534 794.714 137.329 794.667C119.177 790.298 108.189 781.097 97.1065 771.817L96.9991 771.727C97.9234 772.791 98.8069 773.868 99.6944 774.956C106.071 782.749 112.745 790.903 138.034 796.743C138.242 796.791 138.371 796.999 138.324 797.204C138.277 797.412 138.069 797.541 137.864 797.494C112.319 791.596 105.563 783.339 99.1028 775.446C96.3885 772.128 93.7269 768.875 89.7215 765.902C92.0538 769.009 93.6292 772.106 95.2294 775.249C99.7981 784.225 104.576 793.613 128.035 804.712C128.227 804.803 128.311 805.033 128.219 805.226C128.128 805.418 127.898 805.502 127.706 805.41C104.009 794.197 99.1679 784.689 94.5412 775.599C92.625 771.832 90.7437 768.138 87.5491 764.433C85.8548 776.438 82.2032 787.759 78.5263 799.154C73.082 816.032 67.5784 833.085 68.4876 852.618C70.756 853.415 72.3251 855.429 73.1864 858.153C74.0469 860.879 74.188 864.369 73.5787 867.996C73.4979 868.479 73.4186 868.895 73.3437 869.246C72.5139 873.136 71.1941 876.862 69.7704 879.518C68.1478 882.544 66.1965 884.322 64.2787 883.913C61.5894 883.339 61.4631 880.359 61.2537 875.336C61.1578 873.057 61.0422 870.278 60.6668 867.042C60.1006 862.164 60.2204 858.489 61.103 856.072C61.9421 853.784 63.3501 852.506 65.3805 852.269C64.5546 832.389 70.0981 815.209 75.5853 798.204C79.1693 787.096 82.7281 776.061 84.4203 764.452C80.4881 766.444 77.5028 768.859 74.4619 771.313C66.5288 777.723 58.2284 784.432 32.0194 784.995C31.8064 785 31.6309 784.83 31.6257 784.617C31.6205 784.404 31.7908 784.228 32.0038 784.223C57.9525 783.664 66.1455 777.044 73.9764 770.712C76.7237 768.493 79.4251 766.312 82.8191 764.427C77.9491 765.507 74.1917 767.39 70.3598 769.312C61.2411 773.882 51.7036 778.666 25.9757 773.623C25.7663 773.582 25.6324 773.379 25.6739 773.17C25.7154 772.961 25.9179 772.827 26.1273 772.868C51.5974 777.859 61.0141 773.137 70.0198 768.622C71.2733 767.995 72.5164 767.371 73.798 766.775L73.6634 766.813C59.7589 770.763 45.9719 774.682 27.6183 771.26C27.4083 771.222 27.2714 771.019 27.3129 770.809C27.3513 770.599 27.5545 770.462 27.7639 770.504C45.9353 773.89 59.6376 769.997 73.4551 766.069C75.63 765.452 77.8048 764.834 80.003 764.24C76.8264 764.35 73.6821 764.546 70.5444 764.74C56.1154 765.634 41.8083 766.52 24.6109 759.265C24.4136 759.182 24.3224 758.956 24.4056 758.759C24.4889 758.562 24.7139 758.471 24.9112 758.554C41.9463 765.74 56.1604 764.859 70.4996 763.971C73.7466 763.769 76.9996 763.568 80.2993 763.459C78.1335 763.041 76.0586 762.671 74.0291 762.311C60.6979 759.942 49.2285 757.903 31.295 745.677C31.0851 745.535 31.0294 745.248 31.1728 745.035C31.3156 744.825 31.6027 744.769 31.8156 744.912C49.5837 757.024 60.9678 759.047 74.1955 761.398C77.0294 761.901 79.9486 762.419 82.9872 763.046C80.4513 761.916 78.0129 760.893 75.6384 759.897C63.1495 754.661 52.4057 750.155 37.5883 734.293C37.4129 734.107 37.4245 733.816 37.6105 733.64C37.7966 733.465 38.0883 733.477 38.2636 733.663C52.9422 749.375 63.6015 753.847 75.9952 759.04C78.8662 760.244 81.8272 761.486 84.9653 762.92L85.0513 762.932C82.5033 761.37 80.0517 759.949 77.6646 758.567C76.1903 757.962 74.7176 757.423 73.2334 756.879C63.6549 753.374 53.6338 749.706 39.6665 727.516C39.5529 727.337 39.6069 727.099 39.7861 726.985C39.9653 726.872 40.2036 726.926 40.3172 727.105C54.143 749.068 64.0349 752.69 73.4933 756.15L73.5814 756.181C63.5252 750.231 54.3564 743.857 43.1707 728.302C43.0224 728.093 43.0679 727.805 43.2773 727.654C43.4861 727.506 43.7736 727.551 43.925 727.761C56.4786 745.221 66.4829 751.014 78.1089 757.745C78.4521 757.944 78.7984 758.145 79.1447 758.345C80.7042 759.026 82.2698 759.796 83.858 760.742C82.0742 758.964 80.2629 757.24 78.4454 755.53C77.1742 754.788 75.8951 754.097 74.6076 753.402C65.6323 748.552 56.2424 743.482 45.6137 719.518C45.5288 719.323 45.6155 719.095 45.8107 719.01C46.0059 718.925 46.2341 719.012 46.319 719.207C56.8403 742.932 66.1078 747.939 74.9699 752.727C75.3525 752.935 75.7326 753.139 76.1152 753.347C65.7649 743.631 55.5682 733.862 49.1771 716.676C49.1026 716.477 49.2037 716.255 49.406 716.181C49.6053 716.107 49.8273 716.208 49.9012 716.41C56.3445 733.737 66.7296 743.483 77.204 753.314C77.7728 753.849 78.3423 754.382 78.9112 754.918C80.8399 756.047 82.7585 757.298 84.6738 758.861C84.2809 758.315 83.8905 757.773 83.5031 757.232C73.6691 743.568 65.4237 732.11 60.7834 710.512C60.7393 710.303 60.8718 710.097 61.0804 710.053C61.289 710.009 61.4948 710.142 61.5389 710.35C66.1437 731.789 74.348 743.188 84.1307 756.781L84.1962 756.874C81.244 746.636 79.175 735.075 82.9295 715.087C82.9914 714.753 83.3163 714.534 83.651 714.596C83.9857 714.658 84.2042 714.983 84.1423 715.318C80.02 737.266 83.0158 748.93 86.4136 759.956L86.5745 760.18C87.0463 756.678 88.2149 753.439 89.5012 750.241C90.9045 742.254 89.2922 737.536 87.3039 731.72C86.474 729.294 85.5829 726.682 84.8131 723.589L85.7144 723.367C86.4807 726.446 87.3625 729.028 88.1801 731.423C89.9075 736.475 91.3561 740.715 90.8763 746.878C94.0331 739.107 96.6637 731.164 89.978 720.133C89.7997 719.842 89.8938 719.46 90.1872 719.286C90.4782 719.108 90.8598 719.202 91.0344 719.495C98.4426 731.721 94.9445 740.232 91.4458 748.746C90.98 749.877 90.5142 751.007 90.078 752.148C89.5914 754.384 88.8882 756.866 87.9175 759.666L87.9031 759.66C87.8491 759.987 87.8013 760.315 87.7625 760.645L88.2766 760.341C95.8741 751.664 103.363 742.233 108.555 720.522L108.547 720.527ZM81.8038 757.666C83.0605 758.877 84.3139 760.103 85.5536 761.363C85.4481 761.028 85.3456 760.693 85.2407 760.354C84.0991 759.345 82.9523 758.465 81.8038 757.666ZM89.1702 761.192C88.9369 761.456 88.706 761.723 88.4727 761.986C90.1189 761.341 91.761 760.73 93.4047 760.141C92.0303 760.401 90.6234 760.74 89.1702 761.192Z" fill="#414340"></path></svg>
